<mxfile host="app.diagrams.net" modified="2023-06-24T17:59:58.272Z" agent="Mozilla/5.0 (Macintosh; Intel Mac OS X 10_15_7) AppleWebKit/537.36 (KHTML, like Gecko) Chrome/114.0.0.0 Safari/537.36" etag="yvQ3CdSf-T2rPlr8cEtC" version="21.5.0" type="device">
  <diagram id="kgpKYQtTHZ0yAKxKKP6v" name="Page-1">
    <mxGraphModel dx="1804" dy="534" grid="1" gridSize="10" guides="1" tooltips="1" connect="1" arrows="1" fold="1" page="1" pageScale="1" pageWidth="850" pageHeight="1100" math="0" shadow="0">
      <root>
        <mxCell id="0" />
        <mxCell id="1" parent="0" />
        <mxCell id="3nuBFxr9cyL0pnOWT2aG-1" value="User" style="shape=umlLifeline;perimeter=lifelinePerimeter;container=1;collapsible=0;recursiveResize=0;rounded=0;shadow=0;strokeWidth=1;" parent="1" vertex="1">
          <mxGeometry x="120" y="80" width="100" height="300" as="geometry" />
        </mxCell>
        <mxCell id="3nuBFxr9cyL0pnOWT2aG-2" value="" style="points=[];perimeter=orthogonalPerimeter;rounded=0;shadow=0;strokeWidth=1;" parent="3nuBFxr9cyL0pnOWT2aG-1" vertex="1">
          <mxGeometry x="45" y="66" width="10" height="50" as="geometry" />
        </mxCell>
        <mxCell id="p9ofNzFv0D4uH2ADNaXC-16" value="" style="points=[];perimeter=orthogonalPerimeter;rounded=0;shadow=0;strokeWidth=1;" parent="3nuBFxr9cyL0pnOWT2aG-1" vertex="1">
          <mxGeometry x="45" y="160" width="10" height="50" as="geometry" />
        </mxCell>
        <mxCell id="3nuBFxr9cyL0pnOWT2aG-5" value="Transaction Detail" style="shape=umlLifeline;perimeter=lifelinePerimeter;container=1;collapsible=0;recursiveResize=0;rounded=0;shadow=0;strokeWidth=1;" parent="1" vertex="1">
          <mxGeometry x="450" y="80" width="120" height="250" as="geometry" />
        </mxCell>
        <mxCell id="p9ofNzFv0D4uH2ADNaXC-24" value="" style="points=[];perimeter=orthogonalPerimeter;rounded=0;shadow=0;strokeWidth=1;" parent="3nuBFxr9cyL0pnOWT2aG-5" vertex="1">
          <mxGeometry x="53" y="200" width="10" height="40" as="geometry" />
        </mxCell>
        <mxCell id="p9ofNzFv0D4uH2ADNaXC-1" value="Admin / Merchant" style="shape=umlActor;verticalLabelPosition=bottom;verticalAlign=top;html=1;outlineConnect=0;" parent="1" vertex="1">
          <mxGeometry x="30" y="70" width="30" height="60" as="geometry" />
        </mxCell>
        <mxCell id="p9ofNzFv0D4uH2ADNaXC-12" value="move_page_to()" style="text;html=1;strokeColor=none;fillColor=none;align=center;verticalAlign=middle;whiteSpace=wrap;rounded=0;" parent="1" vertex="1">
          <mxGeometry x="226" y="165" width="60" height="30" as="geometry" />
        </mxCell>
        <mxCell id="p9ofNzFv0D4uH2ADNaXC-15" value="return get_transactions()" style="verticalAlign=bottom;endArrow=open;dashed=1;endSize=8;shadow=0;strokeWidth=1;entryX=1.1;entryY=-0.012;entryDx=0;entryDy=0;entryPerimeter=0;exitX=0;exitY=0.958;exitDx=0;exitDy=0;exitPerimeter=0;" parent="1" edge="1">
          <mxGeometry relative="1" as="geometry">
            <mxPoint x="175" y="241.39999999999998" as="targetPoint" />
            <mxPoint x="344" y="239.48000000000002" as="sourcePoint" />
          </mxGeometry>
        </mxCell>
        <mxCell id="p9ofNzFv0D4uH2ADNaXC-17" value="List Transactions" style="shape=umlLifeline;perimeter=lifelinePerimeter;container=1;collapsible=0;recursiveResize=0;rounded=0;shadow=0;strokeWidth=1;" parent="1" vertex="1">
          <mxGeometry x="300" y="80" width="100" height="170" as="geometry" />
        </mxCell>
        <mxCell id="p9ofNzFv0D4uH2ADNaXC-18" value="" style="points=[];perimeter=orthogonalPerimeter;rounded=0;shadow=0;strokeWidth=1;" parent="p9ofNzFv0D4uH2ADNaXC-17" vertex="1">
          <mxGeometry x="45" y="100" width="10" height="60" as="geometry" />
        </mxCell>
        <mxCell id="p9ofNzFv0D4uH2ADNaXC-22" value="" style="endArrow=classic;html=1;rounded=0;exitX=1.1;exitY=0.938;exitDx=0;exitDy=0;exitPerimeter=0;entryX=0;entryY=0.208;entryDx=0;entryDy=0;entryPerimeter=0;" parent="1" source="3nuBFxr9cyL0pnOWT2aG-2" target="p9ofNzFv0D4uH2ADNaXC-18" edge="1">
          <mxGeometry width="50" height="50" relative="1" as="geometry">
            <mxPoint x="400" y="270" as="sourcePoint" />
            <mxPoint x="450" y="220" as="targetPoint" />
          </mxGeometry>
        </mxCell>
        <mxCell id="p9ofNzFv0D4uH2ADNaXC-23" value="" style="endArrow=classic;html=1;rounded=0;exitX=1.1;exitY=0.763;exitDx=0;exitDy=0;exitPerimeter=0;entryX=0.1;entryY=0.088;entryDx=0;entryDy=0;entryPerimeter=0;" parent="1" edge="1">
          <mxGeometry width="50" height="50" relative="1" as="geometry">
            <mxPoint x="175" y="285.52" as="sourcePoint" />
            <mxPoint x="505" y="283.52" as="targetPoint" />
          </mxGeometry>
        </mxCell>
        <mxCell id="p9ofNzFv0D4uH2ADNaXC-25" value="click on transaction" style="text;html=1;strokeColor=none;fillColor=none;align=center;verticalAlign=middle;whiteSpace=wrap;rounded=0;" parent="1" vertex="1">
          <mxGeometry x="200" y="260" width="119" height="30" as="geometry" />
        </mxCell>
        <mxCell id="p9ofNzFv0D4uH2ADNaXC-28" value="return get_transactions()" style="verticalAlign=bottom;endArrow=open;dashed=1;endSize=8;shadow=0;strokeWidth=1;exitX=-0.3;exitY=1;exitDx=0;exitDy=0;exitPerimeter=0;" parent="1" source="p9ofNzFv0D4uH2ADNaXC-24" target="3nuBFxr9cyL0pnOWT2aG-1" edge="1">
          <mxGeometry relative="1" as="geometry">
            <mxPoint x="200" y="320" as="targetPoint" />
            <mxPoint x="354" y="249.48000000000002" as="sourcePoint" />
          </mxGeometry>
        </mxCell>
        <mxCell id="p9ofNzFv0D4uH2ADNaXC-29" value="" style="points=[];perimeter=orthogonalPerimeter;rounded=0;shadow=0;strokeWidth=1;" parent="1" vertex="1">
          <mxGeometry x="165" y="320" width="10" height="50" as="geometry" />
        </mxCell>
      </root>
    </mxGraphModel>
  </diagram>
</mxfile>
